{
    "asset" : {
        "generator" : "Khronos glTF Blender I/O v1.7.33",
        "version" : "2.0"
    },
    "scene" : 0,
    "scenes" : [
        {
            "name" : "Scene",
            "nodes" : [
                0
            ]
        }
    ],
    "nodes" : [
        {
            "mesh" : 0,
            "name" : "315",
            "rotation" : [
                0.7071068286895752,
                0,
                0,
                0.7071067094802856
            ]
        }
    ],
    "materials" : [
        {
            "doubleSided" : true,
            "name" : "model314:anisotropic2SG",
            "pbrMetallicRoughness" : {
                "baseColorFactor" : [
                    0.800000011920929,
                    0.800000011920929,
                    0.800000011920929,
                    1
                ],
                "metallicFactor" : 0,
                "roughnessFactor" : 0.5
            }
        },
        {
            "doubleSided" : true,
            "name" : "model314:pasted__anisotropic2SG",
            "pbrMetallicRoughness" : {
                "baseColorFactor" : [
                    0.800000011920929,
                    0.800000011920929,
                    0.800000011920929,
                    1
                ],
                "metallicFactor" : 0,
                "roughnessFactor" : 0.5
            }
        }
    ],
    "meshes" : [
        {
            "name" : "315",
            "primitives" : [
                {
                    "attributes" : {
                        "POSITION" : 0,
                        "NORMAL" : 1,
                        "TEXCOORD_0" : 2
                    },
                    "indices" : 3,
                    "material" : 0
                },
                {
                    "attributes" : {
                        "POSITION" : 4,
                        "NORMAL" : 5,
                        "TEXCOORD_0" : 6
                    },
                    "indices" : 7,
                    "material" : 1
                }
            ]
        }
    ],
    "accessors" : [
        {
            "bufferView" : 0,
            "componentType" : 5126,
            "count" : 2548,
            "max" : [
                16.299253463745117,
                2,
                -0.31578299403190613
            ],
            "min" : [
                -8.779769897460938,
                0,
                -13.6550931930542
            ],
            "type" : "VEC3"
        },
        {
            "bufferView" : 1,
            "componentType" : 5126,
            "count" : 2548,
            "type" : "VEC3"
        },
        {
            "bufferView" : 2,
            "componentType" : 5126,
            "count" : 2548,
            "type" : "VEC2"
        },
        {
            "bufferView" : 3,
            "componentType" : 5123,
            "count" : 10992,
            "type" : "SCALAR"
        },
        {
            "bufferView" : 4,
            "componentType" : 5126,
            "count" : 801,
            "max" : [
                -0.021542999893426895,
                1.9951729774475098,
                -0.305510014295578
            ],
            "min" : [
                -14.171507835388184,
                -0.004827000200748444,
                -13.554001808166504
            ],
            "type" : "VEC3"
        },
        {
            "bufferView" : 5,
            "componentType" : 5126,
            "count" : 801,
            "type" : "VEC3"
        },
        {
            "bufferView" : 6,
            "componentType" : 5126,
            "count" : 801,
            "type" : "VEC2"
        },
        {
            "bufferView" : 7,
            "componentType" : 5123,
            "count" : 3447,
            "type" : "SCALAR"
        }
    ],
    "bufferViews" : [
        {
            "buffer" : 0,
            "byteLength" : 30576,
            "byteOffset" : 0
        },
        {
            "buffer" : 0,
            "byteLength" : 30576,
            "byteOffset" : 30576
        },
        {
            "buffer" : 0,
            "byteLength" : 20384,
            "byteOffset" : 61152
        },
        {
            "buffer" : 0,
            "byteLength" : 21984,
            "byteOffset" : 81536
        },
        {
            "buffer" : 0,
            "byteLength" : 9612,
            "byteOffset" : 103520
        },
        {
            "buffer" : 0,
            "byteLength" : 9612,
            "byteOffset" : 113132
        },
        {
            "buffer" : 0,
            "byteLength" : 6408,
            "byteOffset" : 122744
        },
        {
            "buffer" : 0,
            "byteLength" : 6894,
            "byteOffset" : 129152
        }
    ],
    "buffers" : [
        {
            "byteLength" : 136048,
            "uri" : "data:application/octet-stream;base64,"
        }
    ]
}
